<svg width="18" height="19" viewBox="0 0 18 19" fill="none" xmlns="http://www.w3.org/2000/svg">
<path d="M6.67497 4.83006L10.221 8.36706C10.988 9.13355 11.9833 9.63013 13.057 9.78206L8.80197 14.0261C8.65244 12.9527 8.15419 11.9584 7.38397 11.1961L3.83797 7.66006L6.67497 4.83006ZM7.38397 1.29306L0.292972 8.36806C0.113822 8.5578 0.0157599 8.80994 0.0196423 9.07086C0.0235246 9.33179 0.129045 9.5809 0.313761 9.76523C0.498477 9.94955 0.747815 10.0545 1.00875 10.0579C1.26968 10.0612 1.52161 9.96261 1.71097 9.78306L2.41997 9.07506L5.96597 12.6121C6.24574 12.8902 6.46776 13.2209 6.61926 13.5852C6.77076 13.9494 6.84875 14.3401 6.84875 14.7346C6.84875 15.1291 6.77076 15.5197 6.61926 15.8839C6.46776 16.2482 6.24574 16.5789 5.96597 16.8571L7.38397 18.2721L11.618 14.0491L16.582 19.0001H18V17.5851L13.036 12.6331L17.312 8.36706L15.894 6.95206C15.3296 7.516 14.5643 7.83277 13.7665 7.83277C12.9686 7.83277 12.2034 7.516 11.639 6.95206L8.09297 3.41406L8.80297 2.70706C8.89704 2.61414 8.97179 2.50352 9.02291 2.38158C9.07403 2.25964 9.10051 2.12879 9.10082 1.99656C9.10114 1.86434 9.07528 1.73337 9.02474 1.61118C8.9742 1.489 8.89997 1.37803 8.80635 1.28467C8.71272 1.1913 8.60154 1.11739 8.47922 1.0672C8.35689 1.017 8.22584 0.991514 8.09362 0.992201C7.9614 0.992888 7.83062 1.01974 7.70883 1.0712C7.58703 1.12266 7.47662 1.19773 7.38397 1.29206V1.29306Z" fill="black"/>
</svg>
